<svg id="svg" version="1.1" width="400" height="400" viewBox="0 0 400 400" xmlns="http://www.w3.org/2000/svg" xmlns:xlink="http://www.w3.org/1999/xlink" ><g id="svgg"><path id="path0" d="M148.400 109.785 C 143.670 110.294,137.640 110.919,135.000 111.173 C 132.360 111.428,128.580 111.801,126.600 112.001 C 124.620 112.202,121.020 112.558,118.600 112.793 C 116.180 113.027,112.445 113.394,110.300 113.609 C 106.429 113.997,102.069 114.429,94.000 115.225 C 91.690 115.452,88.450 115.804,86.800 116.006 C 85.150 116.208,81.695 116.588,79.123 116.849 C 73.696 117.401,74.571 116.423,72.005 124.800 C 71.095 127.770,70.173 130.632,69.956 131.161 C 69.379 132.566,69.851 132.732,73.400 132.372 C 75.160 132.194,79.300 131.848,82.600 131.603 C 91.617 130.934,105.745 129.808,112.966 129.184 C 118.404 128.714,118.460 128.736,118.638 131.476 C 118.707 132.534,118.948 136.190,119.173 139.600 C 119.398 143.010,119.773 148.950,120.005 152.800 C 120.448 160.155,120.958 168.049,121.593 177.400 C 122.099 184.853,122.702 194.595,123.202 203.400 C 123.427 207.360,123.788 213.570,124.004 217.200 C 124.220 220.830,124.585 227.130,124.817 231.200 C 126.447 259.886,129.005 288.601,130.042 289.851 C 131.725 291.879,140.524 291.513,142.713 289.323 L 143.724 288.313 143.471 275.056 C 143.215 261.559,142.822 255.050,140.809 230.900 C 139.373 213.686,138.224 199.238,137.588 190.400 C 136.622 176.984,136.346 172.989,135.971 167.000 C 135.407 158.003,135.021 129.619,135.456 129.184 C 135.823 128.817,140.368 128.234,161.800 125.802 C 182.439 123.460,187.775 122.786,188.055 122.486 C 189.050 121.419,186.981 113.074,185.335 111.516 C 182.284 108.629,166.163 107.873,148.400 109.785 M191.600 128.571 C 184.546 130.529,184.115 134.655,189.991 144.000 C 190.894 145.437,191.172 146.445,191.368 149.000 C 191.503 150.760,191.967 156.520,192.398 161.800 C 192.830 167.080,193.363 173.650,193.583 176.400 C 193.802 179.150,194.352 185.720,194.804 191.000 C 195.256 196.280,195.800 202.850,196.012 205.600 C 196.224 208.350,196.575 212.670,196.791 215.200 C 197.431 222.691,197.995 229.486,198.401 234.600 C 198.610 237.240,198.971 241.560,199.203 244.200 C 199.434 246.840,199.794 251.160,200.003 253.800 C 200.360 258.329,200.564 260.794,201.621 273.400 C 201.861 276.260,202.179 281.016,202.328 283.968 C 202.659 290.499,201.129 289.772,215.800 290.362 C 244.298 291.506,260.726 289.769,279.000 283.681 C 312.890 272.389,330.400 252.644,330.400 225.721 C 330.400 220.901,330.260 219.532,329.156 213.600 C 325.417 193.497,306.168 172.269,277.200 156.303 C 276.210 155.757,274.400 154.760,273.178 154.087 C 265.024 149.595,250.010 142.715,239.700 138.746 C 239.205 138.556,238.395 138.237,237.900 138.038 C 237.405 137.839,235.470 137.102,233.600 136.400 C 229.462 134.847,228.874 134.621,227.600 134.093 C 227.050 133.865,225.520 133.283,224.200 132.800 C 222.880 132.317,221.440 131.772,221.000 131.589 C 213.444 128.448,197.821 126.845,191.600 128.571 M215.318 144.402 C 223.313 145.179,233.175 147.143,239.200 149.157 C 240.410 149.562,242.210 150.128,243.200 150.416 C 244.190 150.704,245.171 151.088,245.380 151.270 C 245.589 151.451,245.996 151.600,246.284 151.600 C 246.573 151.600,247.662 151.978,248.704 152.440 C 249.747 152.902,250.960 153.417,251.400 153.585 C 251.840 153.753,255.710 155.606,260.000 157.703 C 298.746 176.642,318.155 203.344,313.597 231.439 C 309.350 257.613,287.936 274.777,254.200 279.045 C 247.793 279.856,219.964 279.808,214.559 278.977 L 213.318 278.786 213.067 270.493 C 212.705 258.532,212.160 246.547,210.616 216.600 C 210.287 210.220,209.746 198.160,209.413 189.800 C 209.080 181.440,208.634 170.820,208.421 166.200 C 208.209 161.580,207.919 154.695,207.778 150.900 L 207.521 144.000 209.460 144.010 C 210.527 144.016,213.163 144.192,215.318 144.402 " stroke="none" fill="#b9ebdc" fill-rule="evenodd"></path><path id="path1" d="M30.300 0.290 C 29.475 0.377,28.800 0.617,28.800 0.824 C 28.800 1.031,28.260 1.200,27.600 1.200 C 26.940 1.200,26.400 1.380,26.400 1.600 C 26.400 1.820,25.860 2.000,25.200 2.000 C 24.540 2.000,24.000 2.180,24.000 2.400 C 24.000 2.620,23.640 2.800,23.200 2.800 C 22.760 2.800,22.400 2.980,22.400 3.200 C 22.400 3.420,22.040 3.600,21.600 3.600 C 21.160 3.600,20.800 3.780,20.800 4.000 C 20.800 4.220,20.440 4.400,20.000 4.400 C 19.560 4.400,19.200 4.580,19.200 4.800 C 19.200 5.020,18.957 5.200,18.659 5.200 C 18.362 5.200,17.554 5.740,16.863 6.400 C 16.172 7.060,15.411 7.600,15.171 7.600 C 14.602 7.600,7.600 14.602,7.600 15.171 C 7.600 15.411,7.060 16.172,6.400 16.863 C 5.740 17.554,5.200 18.362,5.200 18.659 C 5.200 18.957,5.020 19.200,4.800 19.200 C 4.580 19.200,4.400 19.560,4.400 20.000 C 4.400 20.440,4.220 20.800,4.000 20.800 C 3.780 20.800,3.600 21.160,3.600 21.600 C 3.600 22.040,3.420 22.400,3.200 22.400 C 2.980 22.400,2.800 22.760,2.800 23.200 C 2.800 23.640,2.620 24.000,2.400 24.000 C 2.180 24.000,2.000 24.540,2.000 25.200 C 2.000 25.860,1.820 26.400,1.600 26.400 C 1.380 26.400,1.200 26.925,1.200 27.567 C 1.200 28.208,0.975 28.808,0.700 28.900 C -0.036 29.145,-0.036 370.524,0.700 371.260 C 0.975 371.535,1.200 372.163,1.200 372.656 C 1.200 373.149,1.380 373.664,1.600 373.800 C 1.820 373.936,2.000 374.487,2.000 375.024 C 2.000 375.561,2.180 376.000,2.400 376.000 C 2.620 376.000,2.800 376.360,2.800 376.800 C 2.800 377.240,2.980 377.600,3.200 377.600 C 3.420 377.600,3.600 377.960,3.600 378.400 C 3.600 378.840,3.780 379.200,4.000 379.200 C 4.220 379.200,4.400 379.560,4.400 380.000 C 4.400 380.440,4.580 380.800,4.800 380.800 C 5.020 380.800,5.200 381.043,5.200 381.341 C 5.200 381.638,5.740 382.446,6.400 383.137 C 7.060 383.828,7.600 384.583,7.600 384.815 C 7.600 385.421,14.501 392.395,15.104 392.398 C 15.381 392.399,16.172 392.940,16.863 393.600 C 17.554 394.260,18.362 394.800,18.659 394.800 C 18.957 394.800,19.200 394.980,19.200 395.200 C 19.200 395.420,19.560 395.600,20.000 395.600 C 20.440 395.600,20.800 395.780,20.800 396.000 C 20.800 396.220,21.160 396.400,21.600 396.400 C 22.040 396.400,22.400 396.580,22.400 396.800 C 22.400 397.020,22.760 397.200,23.200 397.200 C 23.640 397.200,24.000 397.380,24.000 397.600 C 24.000 397.820,24.540 398.000,25.200 398.000 C 25.860 398.000,26.400 398.180,26.400 398.400 C 26.400 398.620,26.925 398.800,27.567 398.800 C 28.208 398.800,28.808 399.025,28.900 399.300 C 29.145 400.036,370.524 400.036,371.260 399.300 C 371.535 399.025,372.163 398.800,372.656 398.800 C 373.149 398.800,373.664 398.620,373.800 398.400 C 373.936 398.180,374.487 398.000,375.024 398.000 C 375.561 398.000,376.000 397.820,376.000 397.600 C 376.000 397.380,376.360 397.200,376.800 397.200 C 377.240 397.200,377.600 397.020,377.600 396.800 C 377.600 396.580,377.960 396.400,378.400 396.400 C 378.840 396.400,379.200 396.220,379.200 396.000 C 379.200 395.780,379.560 395.600,380.000 395.600 C 380.440 395.600,380.800 395.420,380.800 395.200 C 380.800 394.980,381.043 394.800,381.341 394.800 C 381.638 394.800,382.446 394.260,383.137 393.600 C 383.828 392.940,384.579 392.400,384.807 392.400 C 385.738 392.400,392.400 385.738,392.400 384.807 C 392.400 384.579,392.940 383.828,393.600 383.137 C 394.260 382.446,394.800 381.638,394.800 381.341 C 394.800 381.043,394.980 380.800,395.200 380.800 C 395.420 380.800,395.600 380.440,395.600 380.000 C 395.600 379.560,395.780 379.200,396.000 379.200 C 396.220 379.200,396.400 378.840,396.400 378.400 C 396.400 377.960,396.580 377.600,396.800 377.600 C 397.020 377.600,397.200 377.240,397.200 376.800 C 397.200 376.360,397.380 376.000,397.600 376.000 C 397.820 376.000,398.000 375.561,398.000 375.024 C 398.000 374.487,398.180 373.936,398.400 373.800 C 398.620 373.664,398.800 373.149,398.800 372.656 C 398.800 372.163,399.025 371.535,399.300 371.260 C 399.698 370.862,399.800 336.057,399.800 199.913 C 399.800 63.592,399.699 29.033,399.300 28.900 C 399.025 28.808,398.800 28.208,398.800 27.567 C 398.800 26.925,398.620 26.400,398.400 26.400 C 398.180 26.400,398.000 25.860,398.000 25.200 C 398.000 24.540,397.820 24.000,397.600 24.000 C 397.380 24.000,397.200 23.640,397.200 23.200 C 397.200 22.760,397.020 22.400,396.800 22.400 C 396.580 22.400,396.400 22.040,396.400 21.600 C 396.400 21.160,396.220 20.800,396.000 20.800 C 395.780 20.800,395.600 20.440,395.600 20.000 C 395.600 19.560,395.420 19.200,395.200 19.200 C 394.980 19.200,394.800 18.957,394.800 18.659 C 394.800 18.362,394.260 17.554,393.600 16.863 C 392.940 16.172,392.399 15.381,392.398 15.104 C 392.395 14.501,385.421 7.600,384.815 7.600 C 384.583 7.600,383.828 7.060,383.137 6.400 C 382.446 5.740,381.638 5.200,381.341 5.200 C 381.043 5.200,380.800 5.020,380.800 4.800 C 380.800 4.580,380.440 4.400,380.000 4.400 C 379.560 4.400,379.200 4.220,379.200 4.000 C 379.200 3.780,378.840 3.600,378.400 3.600 C 377.960 3.600,377.600 3.420,377.600 3.200 C 377.600 2.980,377.240 2.800,376.800 2.800 C 376.360 2.800,376.000 2.620,376.000 2.400 C 376.000 2.180,375.561 2.000,375.024 2.000 C 374.487 2.000,373.936 1.820,373.800 1.600 C 373.664 1.380,373.149 1.200,372.656 1.200 C 372.163 1.200,371.535 0.975,371.260 0.700 C 370.787 0.227,34.721 -0.177,30.300 0.290 M182.394 109.737 C 184.426 110.523,186.286 112.121,186.888 113.600 C 187.445 114.968,188.385 122.132,188.055 122.486 C 187.775 122.786,182.439 123.460,161.800 125.802 C 140.368 128.234,135.823 128.817,135.456 129.184 C 135.021 129.619,135.407 158.003,135.971 167.000 C 136.346 172.989,136.622 176.984,137.588 190.400 C 138.224 199.238,139.373 213.686,140.809 230.900 C 142.822 255.050,143.215 261.559,143.471 275.056 L 143.724 288.313 142.713 289.323 C 140.524 291.513,131.725 291.879,130.042 289.851 C 129.005 288.601,126.447 259.886,124.817 231.200 C 124.585 227.130,124.220 220.830,124.004 217.200 C 123.788 213.570,123.427 207.360,123.202 203.400 C 122.702 194.595,122.099 184.853,121.593 177.400 C 120.958 168.049,120.448 160.155,120.005 152.800 C 119.773 148.950,119.398 143.010,119.173 139.600 C 118.948 136.190,118.707 132.534,118.638 131.476 C 118.460 128.736,118.404 128.714,112.966 129.184 C 105.745 129.808,91.617 130.934,82.600 131.603 C 79.300 131.848,75.160 132.194,73.400 132.372 C 69.851 132.732,69.379 132.566,69.956 131.161 C 70.173 130.632,71.095 127.770,72.005 124.800 C 74.571 116.423,73.696 117.401,79.123 116.849 C 81.695 116.588,85.150 116.208,86.800 116.006 C 88.450 115.804,91.690 115.452,94.000 115.225 C 102.069 114.429,106.429 113.997,110.300 113.609 C 112.445 113.394,116.180 113.027,118.600 112.793 C 121.020 112.558,124.620 112.202,126.600 112.001 C 128.580 111.801,132.360 111.428,135.000 111.173 C 137.640 110.919,143.670 110.294,148.400 109.785 C 159.542 108.586,179.344 108.558,182.394 109.737 M209.400 128.567 C 213.674 129.029,216.803 129.845,221.000 131.589 C 221.440 131.772,222.880 132.317,224.200 132.800 C 225.520 133.283,227.050 133.865,227.600 134.093 C 228.874 134.621,229.462 134.847,233.600 136.400 C 235.470 137.102,237.405 137.839,237.900 138.038 C 238.395 138.237,239.205 138.556,239.700 138.746 C 250.010 142.715,265.024 149.595,273.178 154.087 C 274.400 154.760,276.210 155.757,277.200 156.303 C 306.168 172.269,325.417 193.497,329.156 213.600 C 330.260 219.532,330.400 220.901,330.400 225.721 C 330.400 255.428,307.700 277.588,267.800 286.834 C 252.034 290.487,239.726 291.322,215.800 290.362 C 201.129 289.772,202.659 290.499,202.328 283.968 C 202.179 281.016,201.861 276.260,201.621 273.400 C 200.564 260.794,200.360 258.329,200.003 253.800 C 199.794 251.160,199.434 246.840,199.203 244.200 C 198.971 241.560,198.610 237.240,198.401 234.600 C 197.995 229.486,197.431 222.691,196.791 215.200 C 196.575 212.670,196.224 208.350,196.012 205.600 C 195.800 202.850,195.256 196.280,194.804 191.000 C 194.352 185.720,193.802 179.150,193.583 176.400 C 193.363 173.650,192.830 167.080,192.398 161.800 C 191.967 156.520,191.503 150.760,191.368 149.000 C 191.172 146.445,190.894 145.437,189.991 144.000 C 186.313 138.151,184.954 133.021,186.599 131.202 C 189.337 128.174,197.289 127.255,209.400 128.567 M207.778 150.900 C 207.919 154.695,208.209 161.580,208.421 166.200 C 208.634 170.820,209.080 181.440,209.413 189.800 C 209.746 198.160,210.287 210.220,210.616 216.600 C 212.160 246.547,212.705 258.532,213.067 270.493 L 213.318 278.786 214.559 278.977 C 219.964 279.808,247.793 279.856,254.200 279.045 C 287.936 274.777,309.350 257.613,313.597 231.439 C 318.155 203.344,298.746 176.642,260.000 157.703 C 255.710 155.606,251.840 153.753,251.400 153.585 C 250.960 153.417,249.747 152.902,248.704 152.440 C 247.662 151.978,246.573 151.600,246.284 151.600 C 245.996 151.600,245.589 151.451,245.380 151.270 C 245.171 151.088,244.190 150.704,243.200 150.416 C 242.210 150.128,240.410 149.562,239.200 149.157 C 231.468 146.572,216.893 144.050,209.460 144.010 L 207.521 144.000 207.778 150.900 " stroke="none" fill="#239cec" fill-rule="evenodd"></path></g></svg>